<!DOCTYPE svg PUBLIC "-//W3C//DTD SVG 1.1//EN" "http://www.w3.org/Graphics/SVG/1.1/DTD/svg11.dtd">

<!-- Uploaded to: SVG Repo, www.svgrepo.com, Transformed by: SVG Repo Mixer Tools -->
<svg fill="#B467C7" height="800px" width="800px" version="1.1" id="Capa_1" xmlns="http://www.w3.org/2000/svg" xmlns:xlink="http://www.w3.org/1999/xlink" viewBox="0 0 460.659 460.659" xml:space="preserve" stroke="#A06EB0">

<g id="SVGRepo_bgCarrier" stroke-width="0"/>

<g id="SVGRepo_tracerCarrier" stroke-linecap="round" stroke-linejoin="round"/>

<g id="SVGRepo_iconCarrier"> <g> <path d="M441.078,445.659h-50.975v-15.367c0-35.193-9.385-62.355-27.895-80.732c-8.308-8.248-17.36-13.585-25.66-17.052v-81.365 c17.38-6.49,29.792-23.258,29.792-42.873c0-8.768-2.489-17.287-7.198-24.642c0.81-6.425,0.491-12.245,0.14-15.683 c-0.576-5.654-3.134-10.399-7.397-13.723c-4.663-3.635-10.551-4.905-15.336-5.258v-24.366c0-47.798-12.369-80.892-37.814-101.172 C278.96,7.666,252.099,0.214,214.315,0.01C214.251,0.008,214.187,0,214.123,0c-0.197,0-0.393,0.005-0.589,0.005 C213.261,0.004,212.995,0,212.721,0c-0.095,0-0.187,0.011-0.279,0.014c-36.052,0.297-66.855,10.113-89.161,28.448 c-28.179,23.163-42.467,58.85-42.467,106.065v238.201c0,0.714,0.106,1.402,0.292,2.057c-7.002,15.369-10.549,33.92-10.549,55.507 v15.367H19.582c-4.143,0-7.5,3.357-7.5,7.5c0,4.142,3.357,7.5,7.5,7.5h421.496c4.143,0,7.5-3.358,7.5-7.5 C448.578,449.017,445.22,445.659,441.078,445.659z M307.801,326.086H270.23v-22.734c0-0.396-0.04-0.783-0.1-1.163 c24.057-9.941,39.262-26.521,48.52-40.897c1.023-1.589,1.984-3.172,2.897-4.744v71.258 C313.707,326.117,308.295,326.1,307.801,326.086z M321.547,214.717c-0.396,2.247-2.355,12.177-7.837,24.303h-50.98 c-0.947,0-1.85,0.183-2.685,0.503c-2.016-2.183-4.893-3.559-8.099-3.559h-8.279c-6.093,0-11.031,4.938-11.031,11.031 c0,6.092,4.939,11.031,11.031,11.031h8.279c3.555,0,6.708-1.688,8.726-4.3c0.654,0.187,1.343,0.293,2.058,0.293h42.75 c-16.808,25.55-41.854,39.607-74.453,41.781h-1.395c-32.767-2.185-57.904-16.371-74.713-42.169 c-11.735-18.011-15.267-35.843-15.808-38.913v-82.62h67.218c4.143,0,7.5-3.357,7.5-7.5v-5.375l10.075,10.554 c1.415,1.482,3.375,2.321,5.425,2.321h92.218V214.717z M205.429,333.586v-26.469c7.174,1.836,14.973,3.117,23.472,3.668 c0.162,0.011,0.323,0.016,0.485,0.016h1.887c0.162,0,0.323-0.005,0.485-0.016c8.499-0.551,16.298-1.832,23.472-3.668v26.469 c0,4.143,3.357,7.5,7.5,7.5h19.852c-2.912,26.259-25.229,46.751-52.252,46.751s-49.34-20.492-52.252-46.751h19.852 C202.072,341.086,205.429,337.728,205.429,333.586z M351.339,208.27c0,11.117-5.93,20.874-14.792,26.276v-19.214v-1.606 c5.268-1.3,9.851-4.018,13.49-8.047c0.364-0.403,0.712-0.816,1.05-1.234C351.246,205.708,351.339,206.983,351.339,208.27z M342.679,166.066c0.716,0.563,1.477,1.408,1.68,3.401c0.892,8.739-0.072,20.2-5.453,26.157c-0.721,0.798-1.509,1.456-2.358,2.009 v-33.597C338.873,164.306,341.199,164.903,342.679,166.066z M95.814,134.527c0-103.552,73.482-119.39,117.732-119.524 c52.121,0.131,105.089,12.82,107.877,102.096h-88.885l-20.784-21.771c-2.116-2.218-5.369-2.923-8.214-1.783 c-2.846,1.14-4.711,3.896-4.711,6.962v16.593h-67.218c-4.143,0-7.5,3.357-7.5,7.5v90.733c0,0.36,0.026,0.72,0.078,1.076 c0.131,0.907,3.387,22.474,17.819,44.884c9.258,14.376,24.462,30.956,48.52,40.897c-0.06,0.38-0.1,0.767-0.1,1.163v22.734h-37.518 c-1.286,0.005-30.869,0.051-54.46,23.474c-0.907,0.9-1.774,1.84-2.638,2.782V134.527z M85.557,430.292 c0-88.178,64.527-89.205,67.301-89.206h10.157c2.969,34.543,32.015,61.751,67.314,61.751c35.299,0,64.346-27.208,67.314-61.751 h10.211c0.002,0,0.005,0,0.009,0c0.332,0,8.101,0.059,18.227,3.475c0.286,0.123,0.582,0.224,0.885,0.311 c7.692,2.709,16.624,7.351,24.664,15.333c15.569,15.457,23.463,39.038,23.463,70.088v15.367H85.557V430.292z"/> <circle cx="177.092" cy="166.997" r="8.952"/> <circle cx="283.566" cy="166.997" r="8.951"/> <path d="M221.974,193.323c-4.143,0-7.5,3.357-7.5,7.5c0,8.026,6.529,14.556,14.556,14.556h2.6c8.026,0,14.556-6.529,14.556-14.556 c0-4.143-3.357-7.5-7.5-7.5c-3.993,0-7.257,3.12-7.487,7.056h-1.736C229.231,196.443,225.967,193.323,221.974,193.323z"/> <path d="M208.251,242.498c-8.828-3.033-13.376-6.899-13.568-7.064c-3.062-2.75-7.774-2.519-10.552,0.527 c-2.791,3.061-2.572,7.805,0.488,10.596c0.663,0.605,6.824,6.027,18.757,10.127c0.808,0.277,1.63,0.409,2.438,0.409 c3.114,0,6.024-1.955,7.093-5.064C214.253,248.11,212.169,243.844,208.251,242.498z"/> <path d="M334.137,409.485h-23.055c-4.142,0-7.5,3.358-7.5,7.5c0,4.143,3.358,7.5,7.5,7.5h23.055c4.143,0,7.5-3.357,7.5-7.5 C341.637,412.843,338.28,409.485,334.137,409.485z"/> </g> </g>

</svg>